<?xml version="1.0" encoding="utf-8"?>
<!-- Generator: Adobe Illustrator 24.1.2, SVG Export Plug-In . SVG Version: 6.00 Build 0)  -->
<svg version="1.1" id="Layer_1" xmlns="http://www.w3.org/2000/svg" xmlns:xlink="http://www.w3.org/1999/xlink" x="0px" y="0px"
	 viewBox="0 0 522.9 179.4" style="enable-background:new 0 0 522.9 179.4;" xml:space="preserve">
<style type="text/css">
	.st0{fill:#25445F;}
</style>
<g id="Layer_2_1_">
	<g id="Layer_1-2">
		<g id="Layer_2-2">
			<g id="Layer_1-2-2">
				<path class="st0" d="M495.6,41.9c-29-21.5-60.4-4.9-122.2,1.5c-49.7,5.2-128.2,13.3-194.8-17.6c-9.4-4.4-49.1-23.6-100.7-25.6
					C64-0.4,59.4,0.7,56.4,1.6C6.1,17.5-18.7,132.5,16.5,162.9c24.9,21.5,59.8-16.4,165.5-24.4c23-1.8,76.7-5.5,141.9,7.8
					c82,16.6,105.1,44.4,143.8,28.3c29.7-12.4,57.6-46.1,55.1-82C522.6,89.9,520,59.9,495.6,41.9z"/>
			</g>
		</g>
	</g>
</g>
</svg>
