<svg id="Layer_1" data-name="Layer 1" xmlns="http://www.w3.org/2000/svg" xmlns:xlink="http://www.w3.org/1999/xlink" viewBox="0 0 9.09 9"><defs><style>.cls-1{fill:none;}.cls-2{clip-path:url(#clip-path);}.cls-3{clip-path:url(#clip-path-2);}.cls-4{fill:#85bbbd;}</style><clipPath id="clip-path"><rect class="cls-1" x="-9.44" width="25" height="9"/></clipPath><clipPath id="clip-path-2"><rect class="cls-1" x="-9.44" y="-1" width="25" height="25"/></clipPath></defs><g class="cls-2"><g class="cls-3"><path class="cls-4" d="M8.82.32a0,0,0,0,1,0,0h0a0,0,0,0,1,0,0A0,0,0,0,1,8.82.32Z"/><polygon class="cls-4" points="8.83 1.15 8.83 1.15 8.84 1.15 8.84 1.15 8.83 1.15"/><path class="cls-4" d="M8.4.74s0,0,0,0,0,0,0,0,0,0,0,0S8.4.75,8.4.74Z"/><circle class="cls-4" cx="7.99" cy="0.31" r="0.04"/><polygon class="cls-4" points="8.41 1.57 8.41 1.57 8.41 1.57 8.41 1.57 8.41 1.57"/><path class="cls-4" d="M8,1.16s0,0,0,0H8v0S8,1.17,8,1.16Z"/><path class="cls-4" d="M7.54.76s0-.05,0-.06A0,0,0,0,1,7.6.7s0,0,0,.06A0,0,0,0,1,7.54.76Z"/><path class="cls-4" d="M7.1.35a.07.07,0,0,1,0-.09.09.09,0,0,1,.1,0,.07.07,0,0,1,0,.09A.07.07,0,0,1,7.1.35Z"/><polygon class="cls-4" points="7.99 1.99 7.99 1.99 7.99 1.99 7.99 1.99 7.99 1.99"/><circle class="cls-4" cx="7.57" cy="1.57" r="0.02"/><path class="cls-4" d="M7.12,1.18a0,0,0,1,1,.06,0A0,0,0,0,1,7.12,1.18Z"/><path class="cls-4" d="M6.68.77a.07.07,0,0,1,0-.09.07.07,0,0,1,.09,0,.06.06,0,0,1,0,.09A.06.06,0,0,1,6.68.77Z"/><circle class="cls-4" cx="6.31" cy="0.31" r="0.08"/><polygon class="cls-4" points="7.57 2.41 7.57 2.41 7.57 2.41 7.57 2.41 7.57 2.41"/><circle class="cls-4" cx="7.15" cy="1.99" r="0.02"/><path class="cls-4" d="M6.7,1.6a0,0,0,1,1,.06,0A0,0,0,0,1,6.7,1.6Z"/><path class="cls-4" d="M6.26,1.19a.07.07,0,0,1,0-.09.07.07,0,0,1,.09,0,.06.06,0,0,1,0,.09A.06.06,0,0,1,6.26,1.19Z"/><circle class="cls-4" cx="5.89" cy="0.73" r="0.08"/><path class="cls-4" d="M5.39.38a.11.11,0,0,1,0-.15.11.11,0,0,1,.15,0,.11.11,0,0,1,0,.15A.11.11,0,0,1,5.39.38Z"/><circle class="cls-4" cx="5.05" cy="-0.11" r="0.12"/><polygon class="cls-4" points="7.15 2.83 7.15 2.83 7.15 2.83 7.15 2.83 7.15 2.83"/><path class="cls-4" d="M6.71,2.43v0h0s0,0,0,0Z"/><circle class="cls-4" cx="6.31" cy="1.99" r="0.04"/><path class="cls-4" d="M5.84,1.62a.09.09,0,0,1,0-.1.07.07,0,0,1,.09,0,.07.07,0,0,1,0,.1A.07.07,0,0,1,5.84,1.62Z"/><circle class="cls-4" cx="5.47" cy="1.15" r="0.08"/><path class="cls-4" d="M5,.8a.11.11,0,1,1,.15,0A.11.11,0,0,1,5,.8Z"/><circle class="cls-4" cx="4.63" cy="0.31" r="0.12"/><circle class="cls-4" cx="4.2" cy="-0.11" r="0.14"/><polygon class="cls-4" points="6.73 3.25 6.73 3.25 6.73 3.25 6.73 3.25 6.73 3.25"/><path class="cls-4" d="M6.29,2.85a0,0,0,0,1,0,0h0a0,0,0,0,1,0,0Z"/><circle class="cls-4" cx="5.89" cy="2.41" r="0.04"/><path class="cls-4" d="M5.42,2a.07.07,0,0,1,0-.09A.06.06,0,0,1,5.51,2,.07.07,0,0,1,5.42,2Z"/><circle class="cls-4" cx="5.05" cy="1.57" r="0.08"/><path class="cls-4" d="M4.55,1.22a.11.11,0,1,1,.15,0A.09.09,0,0,1,4.55,1.22Z"/><path class="cls-4" d="M4.12.82a.13.13,0,0,1,0-.18.12.12,0,0,1,.17,0,.13.13,0,0,1,0,.18A.14.14,0,0,1,4.12.82Z"/><circle class="cls-4" cx="3.78" cy="0.31" r="0.14"/><circle class="cls-4" cx="3.36" cy="-0.11" r="0.16"/><polygon class="cls-4" points="6.31 3.68 6.31 3.67 6.31 3.67 6.31 3.68 6.31 3.68"/><path class="cls-4" d="M5.87,3.27a0,0,0,0,1,0,0,0,0,0,0,1,0,0,0,0,0,0,1,0,0Z"/><path class="cls-4" d="M5.44,2.86s0,0,0-.06,0,0,.06,0a.06.06,0,0,1,0,.06S5.45,2.88,5.44,2.86Z"/><path class="cls-4" d="M5,2.46a.07.07,0,0,1,0-.09.06.06,0,0,1,.09.09A.07.07,0,0,1,5,2.46Z"/><circle class="cls-4" cx="4.63" cy="1.99" r="0.08"/><path class="cls-4" d="M4.13,1.64a.1.1,0,0,1,0-.14.09.09,0,0,1,.15,0,.1.1,0,0,1,0,.14A.09.09,0,0,1,4.13,1.64Z"/><path class="cls-4" d="M3.7,1.24a.13.13,0,0,1,0-.18.11.11,0,0,1,.17,0,.13.13,0,0,1,0,.18A.14.14,0,0,1,3.7,1.24Z"/><circle class="cls-4" cx="3.36" cy="0.73" r="0.14"/><circle class="cls-4" cx="2.94" cy="0.31" r="0.16"/><path class="cls-4" d="M2.4,0a.18.18,0,0,1,0-.25.18.18,0,0,1,.25,0,.18.18,0,0,1,0,.25A.18.18,0,0,1,2.4,0Z"/><polygon class="cls-4" points="5.88 4.1 5.88 4.09 5.89 4.09 5.89 4.1 5.88 4.1"/><path class="cls-4" d="M5.45,3.69a0,0,0,0,1,0,0,0,0,0,0,1,0,0,0,0,0,0,1,0,0A0,0,0,0,1,5.48,3.66Z"/><path class="cls-4" d="M5,3.28s0,0,0-.06a0,0,0,0,1,.06.06S5,3.3,5,3.28Z"/><path class="cls-4" d="M4.58,2.88a.06.06,0,1,1,.09,0A.07.07,0,0,1,4.58,2.88Z"/><circle class="cls-4" cx="4.2" cy="2.41" r="0.08"/><path class="cls-4" d="M3.71,2.07a.11.11,0,0,1,0-.15.09.09,0,0,1,.15,0,.11.11,0,1,1-.15.15Z"/><path class="cls-4" d="M3.28,1.66a.13.13,0,0,1,0-.18.11.11,0,0,1,.17,0,.13.13,0,0,1,0,.18A.11.11,0,0,1,3.28,1.66Z"/><circle class="cls-4" cx="2.94" cy="1.15" r="0.14"/><path class="cls-4" d="M2.41.84a.16.16,0,0,1,0-.22.15.15,0,0,1,.23,0,.16.16,0,0,1,0,.22A.17.17,0,0,1,2.41.84Z"/><circle class="cls-4" cx="2.1" cy="0.31" r="0.18"/><path class="cls-4" d="M1.55,0a.18.18,0,0,1,0-.27.2.2,0,0,1,.27,0,.2.2,0,0,1,0,.27A.18.18,0,0,1,1.55,0Z"/><polygon class="cls-4" points="5.46 4.52 5.46 4.51 5.47 4.51 5.47 4.52 5.46 4.52"/><circle class="cls-4" cx="5.05" cy="4.09" r="0.02"/><path class="cls-4" d="M4.6,3.7s0,0,0-.06a0,0,0,1,1,.06.06S4.61,3.72,4.6,3.7Z"/><path class="cls-4" d="M4.16,3.3a.06.06,0,1,1,.09,0A.07.07,0,0,1,4.16,3.3Z"/><circle class="cls-4" cx="3.78" cy="2.83" r="0.08"/><path class="cls-4" d="M3.29,2.49a.11.11,0,1,1,.15,0A.11.11,0,0,1,3.29,2.49Z"/><circle class="cls-4" cx="2.94" cy="1.99" r="0.12"/><path class="cls-4" d="M2.42,1.67a.14.14,0,1,1,.2,0A.13.13,0,0,1,2.42,1.67Z"/><circle class="cls-4" cx="2.1" cy="1.15" r="0.16"/><circle class="cls-4" cx="1.68" cy="0.73" r="0.18"/><path class="cls-4" d="M1.12.44a.2.2,0,0,1,0-.27.21.21,0,0,1,.28,0,.2.2,0,0,1,0,.27A.19.19,0,0,1,1.12.44Z"/><path class="cls-4" d="M.69,0a.21.21,0,0,1,0-.29A.21.21,0,0,1,1-.26.21.21,0,0,1,1,0,.21.21,0,0,1,.69,0Z"/><polygon class="cls-4" points="5.04 4.94 5.04 4.93 5.05 4.93 5.05 4.94 5.04 4.94"/><circle class="cls-4" cx="4.63" cy="4.51" r="0.02"/><circle class="cls-4" cx="4.2" cy="4.09" r="0.04"/><path class="cls-4" d="M3.74,3.72a.06.06,0,1,1,.09-.09.06.06,0,0,1-.09.09Z"/><circle class="cls-4" cx="3.36" cy="3.25" r="0.08"/><path class="cls-4" d="M2.87,2.91a.11.11,0,1,1,.15,0A.11.11,0,0,1,2.87,2.91Z"/><circle class="cls-4" cx="2.52" cy="2.41" r="0.12"/><circle class="cls-4" cx="2.1" cy="1.99" r="0.14"/><path class="cls-4" d="M1.57,1.68a.14.14,0,0,1,0-.22.14.14,0,0,1,.22,0,.14.14,0,0,1,0,.22A.14.14,0,0,1,1.57,1.68Z"/><circle class="cls-4" cx="1.26" cy="1.15" r="0.18"/><path class="cls-4" d="M.7.86A.2.2,0,0,1,.7.59.2.2,0,0,1,1,.59.18.18,0,0,1,1,.86.18.18,0,0,1,.7.86Z"/><path class="cls-4" d="M.27.45a.21.21,0,1,1,.29,0A.21.21,0,0,1,.27.45Z"/><circle class="cls-4" cy="-0.11" r="0.21"/><circle class="cls-4" cx="4.63" cy="5.36"/><path class="cls-4" d="M4.19,5a0,0,0,0,1,0,0h0a0,0,0,0,1,0,0Z"/><path class="cls-4" d="M3.75,4.55a.09.09,0,0,1,0-.07.06.06,0,0,1,.06,0,0,0,0,0,1,0,.07Z"/><path class="cls-4" d="M3.32,4.14a.06.06,0,0,1,.09-.09.06.06,0,1,1-.09.09Z"/><circle class="cls-4" cx="2.94" cy="3.67" r="0.08"/><circle class="cls-4" cx="2.52" cy="3.25" r="0.11"/><path class="cls-4" d="M2,2.92a.15.15,0,0,1,0-.18.15.15,0,0,1,.18,0A.13.13,0,0,1,2,2.92Z"/><path class="cls-4" d="M1.58,2.51a.14.14,0,0,1,.2-.2.14.14,0,1,1-.2.2Z"/><path class="cls-4" d="M1.15,2.1a.14.14,0,0,1,0-.22.14.14,0,0,1,.22,0,.14.14,0,0,1,0,.22A.14.14,0,0,1,1.15,2.1Z"/><path class="cls-4" d="M.71,1.69a.18.18,0,0,1,0-.24.18.18,0,0,1,.25,0,.16.16,0,0,1,0,.24A.18.18,0,0,1,.71,1.69Z"/><path class="cls-4" d="M.28,1.28A.2.2,0,0,1,.28,1,.2.2,0,0,1,.55,1a.18.18,0,0,1,0,.27A.18.18,0,0,1,.28,1.28Z"/><circle class="cls-4" cy="0.73" r="0.2"/><polygon class="cls-4" points="4.2 5.78 4.2 5.78 4.21 5.78 4.21 5.78 4.2 5.78"/><path class="cls-4" d="M3.77,5.37a0,0,0,0,1,0,0h0a0,0,0,0,1,0,0Z"/><path class="cls-4" d="M3.33,5a.06.06,0,0,1,0-.06s0,0,.06,0,0,0,0,.06A.06.06,0,0,1,3.33,5Z"/><path class="cls-4" d="M2.9,4.56A.06.06,0,0,1,3,4.47a.08.08,0,0,1,0,.09A.06.06,0,0,1,2.9,4.56Z"/><path class="cls-4" d="M2.46,4.15a.08.08,0,1,1,.12,0A.07.07,0,0,1,2.46,4.15Z"/><path class="cls-4" d="M2,3.75a.11.11,0,1,1,.15,0A.11.11,0,0,1,2,3.75Z"/><circle class="cls-4" cx="1.68" cy="3.25" r="0.12"/><circle class="cls-4" cx="1.26" cy="2.83" r="0.14"/><circle class="cls-4" cx="0.84" cy="2.41" r="0.16"/><path class="cls-4" d="M.29,2.12a.18.18,0,0,1,.25-.25.17.17,0,0,1,0,.25A.2.2,0,0,1,.29,2.12Z"/><circle class="cls-4" cy="1.57" r="0.19"/><polygon class="cls-4" points="3.78 6.2 3.78 6.2 3.79 6.2 3.79 6.2 3.78 6.2"/><path class="cls-4" d="M3.35,5.79a0,0,0,0,1,0,0h0a0,0,0,0,1,0,0Z"/><path class="cls-4" d="M2.91,5.39a.06.06,0,0,1,0-.06s0,0,.06,0,0,0,0,.06A.06.06,0,0,1,2.91,5.39Z"/><path class="cls-4" d="M2.48,5a.06.06,0,0,1,.09-.09.07.07,0,0,1,0,.09A.06.06,0,0,1,2.48,5Z"/><circle class="cls-4" cx="2.1" cy="4.51" r="0.08"/><circle class="cls-4" cx="1.68" cy="4.09" r="0.11"/><path class="cls-4" d="M1.17,3.76a.11.11,0,0,1,0-.17.13.13,0,0,1,.18,0,.11.11,0,0,1,0,.17A.13.13,0,0,1,1.17,3.76Z"/><circle class="cls-4" cx="0.84" cy="3.25" r="0.14"/><path class="cls-4" d="M.31,3a.15.15,0,0,1,0-.23.16.16,0,0,1,.22,0A.17.17,0,0,1,.53,3,.16.16,0,0,1,.31,3Z"/><circle class="cls-4" cy="2.41" r="0.18"/><polygon class="cls-4" points="3.36 6.62 3.36 6.62 3.37 6.62 3.37 6.62 3.36 6.62"/><path class="cls-4" d="M2.93,6.21a0,0,0,0,1,0,0H3a0,0,0,0,1,0,0Z"/><path class="cls-4" d="M2.49,5.81s0,0,0-.06,0,0,.06,0,0,0,0,.06A.06.06,0,0,1,2.49,5.81Z"/><path class="cls-4" d="M2.06,5.4a.06.06,0,0,1,0-.09.06.06,0,0,1,.09.09A.06.06,0,0,1,2.06,5.4Z"/><path class="cls-4" d="M1.62,5a.09.09,0,0,1,0-.12.08.08,0,0,1,.12,0A.08.08,0,0,1,1.62,5Z"/><circle class="cls-4" cx="1.26" cy="4.51" r="0.11"/><path class="cls-4" d="M.75,4.18A.11.11,0,0,1,.75,4,.13.13,0,0,1,.93,4a.14.14,0,0,1,0,.17A.13.13,0,0,1,.75,4.18Z"/><path class="cls-4" d="M.32,3.77a.13.13,0,0,1,0-.2.15.15,0,0,1,.2,0,.13.13,0,0,1,0,.2A.13.13,0,0,1,.32,3.77Z"/><circle class="cls-4" cy="3.25" r="0.16"/><polygon class="cls-4" points="2.94 7.04 2.94 7.04 2.94 7.04 2.94 7.04 2.94 7.04"/><circle class="cls-4" cx="2.52" cy="6.62" r="0.02"/><circle class="cls-4" cx="2.1" cy="6.2" r="0.04"/><path class="cls-4" d="M1.63,5.82a.07.07,0,0,1,0-.09.09.09,0,0,1,.1,0,.07.07,0,0,1,0,.09A.07.07,0,0,1,1.63,5.82Z"/><circle class="cls-4" cx="1.26" cy="5.36" r="0.08"/><path class="cls-4" d="M.76,5A.11.11,0,1,1,.91,5,.11.11,0,0,1,.76,5Z"/><path class="cls-4" d="M.33,4.6a.12.12,0,0,1,0-.17.13.13,0,0,1,.18,0,.14.14,0,0,1,0,.17A.13.13,0,0,1,.33,4.6Z"/><circle class="cls-4" cy="4.09" r="0.14"/><polygon class="cls-4" points="2.52 7.46 2.52 7.46 2.52 7.46 2.52 7.46 2.52 7.46"/><circle class="cls-4" cx="2.1" cy="7.04" r="0.02"/><circle class="cls-4" cx="1.68" cy="6.62" r="0.04"/><path class="cls-4" d="M1.21,6.24a.07.07,0,0,1,0-.09.09.09,0,0,1,.1,0,.07.07,0,0,1,0,.09A.07.07,0,0,1,1.21,6.24Z"/><circle class="cls-4" cx="0.84" cy="5.78" r="0.08"/><circle class="cls-4" cx="0.42" cy="5.36" r="0.11"/><path class="cls-4" d="M-.09,5a.12.12,0,0,1,0-.17.13.13,0,0,1,.18,0A.14.14,0,0,1,.09,5,.13.13,0,0,1-.09,5Z"/><polygon class="cls-4" points="2.1 7.88 2.1 7.88 2.1 7.88 2.1 7.88 2.1 7.88"/><path class="cls-4" d="M1.67,7.47s0,0,0,0h0v0S1.67,7.48,1.67,7.47Z"/><path class="cls-4" d="M1.23,7.07A0,0,0,0,1,1.29,7a0,0,0,1,1-.06.06Z"/><path class="cls-4" d="M.79,6.66a.07.07,0,0,1,0-.09.07.07,0,0,1,.09,0,.06.06,0,0,1,0,.09A.06.06,0,0,1,.79,6.66Z"/><path class="cls-4" d="M.36,6.26a.09.09,0,0,1,0-.12.09.09,0,0,1,.12,0,.09.09,0,0,1,0,.12A.09.09,0,0,1,.36,6.26Z"/><path class="cls-4" d="M-.08,5.85a.11.11,0,0,1,0-.15.11.11,0,0,1,.15,0,.11.11,0,0,1,0,.15A.11.11,0,0,1-.08,5.85Z"/><polygon class="cls-4" points="1.68 8.3 1.68 8.3 1.68 8.3 1.68 8.3 1.68 8.3"/><path class="cls-4" d="M1.24,7.9v0h0s0,0,0,0Z"/><path class="cls-4" d="M.81,7.49a0,0,0,0,1,.06-.06,0,0,0,1,1-.06.06Z"/><path class="cls-4" d="M.37,7.08A.07.07,0,0,1,.37,7,.07.07,0,0,1,.46,7a.06.06,0,0,1,0,.09A.06.06,0,0,1,.37,7.08Z"/><circle class="cls-4" cy="6.62" r="0.08"/><polygon class="cls-4" points="1.26 8.72 1.26 8.72 1.26 8.72 1.26 8.72 1.26 8.72"/><path class="cls-4" d="M.82,8.32v0h0s0,0,0,0Z"/><path class="cls-4" d="M.39,7.91a0,0,0,0,1,0-.06s0,0,.06,0a0,0,0,0,1,0,.06S.4,7.93.39,7.91Z"/><path class="cls-4" d="M0,7.51a.09.09,0,0,1,0-.1.07.07,0,0,1,.09,0,.07.07,0,0,1,0,.1A.07.07,0,0,1,0,7.51Z"/><circle class="cls-4" cx="0.42" cy="8.72" r="0.02"/><circle class="cls-4" cy="8.3" r="0.04"/></g></g></svg>